/* XPM */
static char *ee7d8b1b289c4996e8cdb90e3a5012763K4BlCBYqlgVxR67[] = {
/* columns rows colors chars-per-pixel */
"50 50 218 2 ",
"   c #1D8D46",
".  c #1C944C",
"X  c #169949",
"o  c #1E9C52",
"O  c #169D50",
"+  c #2C8544",
"@  c #258C46",
"#  c #258B49",
"$  c #2B8C4A",
"%  c #338446",
"&  c #348749",
"*  c #358B4B",
"=  c #3B8A4D",
"-  c #358647",
";  c #23934C",
":  c #2B924D",
">  c #32914E",
",  c #3B8F52",
"<  c #259650",
"1  c #249C53",
"2  c #2A9B53",
"3  c #2A9955",
"4  c #3C9252",
"5  c #349955",
"6  c #1FA559",
"7  c #1CA657",
"8  c #1EB95E",
"9  c #24A456",
"0  c #24A459",
"q  c #2BA25A",
"w  c #23AB5E",
"e  c #29AB5D",
"r  c #29A157",
"t  c #38A25A",
"y  c #26B15F",
"u  c #27AE61",
"i  c #2BAD62",
"p  c #25B564",
"a  c #2BB565",
"s  c #26BA64",
"d  c #2ABA66",
"f  c #2CB669",
"g  c #26B969",
"h  c #2BBB6A",
"j  c #26B768",
"k  c #33B569",
"l  c #33BB6C",
"z  c #3BBC69",
"x  c #32B465",
"c  c #3ABD71",
"v  c #41854A",
"b  c #428E4E",
"n  c #4A8E54",
"m  c #438C51",
"M  c #439152",
"N  c #479B5C",
"B  c #53925A",
"V  c #5B965D",
"C  c #5C9B62",
"Z  c #559A64",
"A  c #659C65",
"S  c #659E69",
"D  c #689A65",
"F  c #5AA368",
"G  c #42BD6D",
"H  c #49BB6D",
"J  c #42B567",
"K  c #53B66D",
"L  c #58B66E",
"P  c #53BD72",
"I  c #59BA72",
"U  c #5EB570",
"Y  c #65A167",
"T  c #64A46C",
"R  c #6BA46D",
"E  c #6BAA6E",
"W  c #64AE6F",
"Q  c #73A46D",
"!  c #60B16E",
"~  c #75A975",
"^  c #7BAA75",
"/  c #7CAE7A",
"(  c #71A670",
")  c #66BE79",
"_  c #6BB979",
"`  c #7BB27B",
"'  c #26C166",
"]  c #2CC36C",
"[  c #27CE6E",
"{  c #2CCC6F",
"}  c #28C368",
"|  c #33C66E",
" . c #3BC36E",
".. c #31CA6F",
"X. c #2FC770",
"o. c #27CF72",
"O. c #2DCD71",
"+. c #33C572",
"@. c #3BC673",
"#. c #32CB72",
"$. c #3ACA74",
"%. c #3ACC79",
"&. c #27D171",
"*. c #2DD274",
"=. c #2EDC77",
"-. c #2EDD79",
";. c #32D476",
":. c #31DA77",
">. c #33D678",
",. c #32DB79",
"<. c #39DB7C",
"1. c #3CD07C",
"2. c #2DE07A",
"3. c #41C16E",
"4. c #44C473",
"5. c #49C272",
"6. c #56C477",
"7. c #40D079",
"8. c #64C17A",
"9. c #69C07B",
"0. c #82B47E",
"q. c #7CBC84",
"w. c #7BB582",
"e. c #3ADD80",
"r. c #37E181",
"t. c #64C880",
"y. c #7CCB89",
"u. c #78CA85",
"i. c #8DB684",
"p. c #8ABB84",
"a. c #88BF88",
"s. c #91BC87",
"d. c #99BF90",
"f. c #8BC991",
"g. c #94C591",
"h. c #9CC897",
"j. c #83D693",
"k. c #8CD796",
"l. c #95DC9C",
"z. c #98D498",
"x. c #82C786",
"c. c #A2C595",
"v. c #A3CC9A",
"b. c #A7C998",
"n. c #A8D29F",
"m. c #AECFA0",
"M. c #ADD8A3",
"N. c #B3DDAB",
"B. c #BBDBAA",
"V. c #B6D4A7",
"C. c #ABE7AA",
"Z. c #A8E6A8",
"A. c #B1E3AB",
"S. c #B4E8AE",
"D. c #B8E8AE",
"F. c #BAEAB2",
"G. c #BCEAB5",
"H. c #BCF4B9",
"J. c #D0C29B",
"K. c #CBC49A",
"L. c #D6CDA4",
"P. c #C2DDAD",
"I. c #DAD2A8",
"U. c #C6DEB1",
"Y. c #CEDDB2",
"T. c #DDDCB4",
"R. c #DDDFB8",
"E. c #E2D4AE",
"W. c #E9D7AF",
"Q. c #E5D7B3",
"!. c #ECD6B5",
"~. c #E5DCB5",
"^. c #ECDCB6",
"/. c #E6DEB9",
"(. c #ECDDB8",
"). c #F1DAB6",
"_. c #F1DBB9",
"`. c #F2D7B9",
"'. c #C0E0AF",
"]. c #C4E2B2",
"[. c #CCE3B6",
"{. c #C4EDB5",
"}. c #CCE6B9",
"|. c #CCEDBB",
" X c #C4EDB9",
".X c #DCE4B7",
"XX c #D5E5B9",
"oX c #DCE4BA",
"OX c #D3EBBC",
"+X c #DCEABD",
"@X c #D1E1B4",
"#X c #C8F4BF",
"$X c #D4F0BE",
"%X c #E2E2BA",
"&X c #E4E2BB",
"*X c #E1E6BD",
"=X c #E3E3BC",
"-X c #ECE1BB",
";X c #E2E9BE",
":X c #E6E1B7",
">X c #F1E1BD",
",X c #F8E1BF",
"<X c #CFEFC0",
"1X c #D5EFC1",
"2X c #DBEDC1",
"3X c #DBF5C4",
"4X c #D4FCC9",
"5X c #DBFBCC",
"6X c #E3EAC1",
"7X c #E2EAC1",
"8X c #EAECC4",
"9X c #EEE6C1",
"0X c #F5E4C2",
"qX c #F4E9C3",
"wX c #FAEAC5",
"eX c #FCE5C3",
"rX c #E8F5C8",
"tX c #F4F7CC",
/* pixels */
"(.(.(.(.(.(.).(.^.(.(.(.^.^.).).!.(._.(.(.(.(.(.(.>X(.!.!.(.:X(.(.^.).).).).).(.(.(.^.(.(.(.).(.(.(.",
"(.(.(.(.(.(.(.(.(.(.(.(.(.^.)._.>X^.^.(.(.(.^.Q.(.(.(.(.(.(.(.-X(.(.(.(.).).^.^.(.(.(.(.(.(.(.(.(.(.",
"(.(.(.(.(.(.(.(.(.(.(.(.(.(.(.(.^.^.^.^.^.(._.0X>X(.!.(.(.^.^.^.(.(.^.^.(.^.^.^.(.(.(.(.^.(.(.(.(./.",
").(.(.(.(.(.(.(.(.(.(.(.(.(.(.(.^.^.(.(.(.(.(./././.(.(.>X_._._.(.^.^.^.^.(.^.^.(.(.(.(.^.(.(.(.(./.",
").).(.(.(.(.(.(.(.(.(.(.(.(.(.(.(.^.^.(.(./.%X%X=X=X=X=X~.Q.!.).(.^.~.~.(.(.).).).(.(.(.^.^.(.(.(.(.",
").).(.(.(.(.(.(.(.(.^.^.(.(.(.^.^.(.^.~.&X7XXXP.].B.P.XX7X-X(._.^.^.~.~.~.(.).).).).(.(.^.^.(.(.(.(.",
").(.(.(.(.(.(.(.).).).).(.(.(.~.:X(./.oXXXB.s.R C C R p.V.XX*X/.(./.&X&X&X(.(.`._.).(.(.^.^.(.(.(.(.",
"(.(.(.(.(.(.(.(.).(.(.(.:X&X%XoX*XR.oXOXn.D v , $ > * - A c.XX;X%X=X+X+X=X=X(.(.).).(.(.^.^.(.(.).).",
"(.^.^.>X^.(.^.(.>XQ.-X8X@X[.].B.}.1X4Xh.V % $ 5 1 1 1 : & B g.5X1X}.].'.P.OX7X%XQ.(.^.^.>XQ.(.).).).",
"^.^.^.(.^._.^.(.T.8XXXb.^ V V E R q.f.F & 5 q r f f u r $ * Z w.0.R A Y A Q c.[.oX&X:X^.Q.-X).^.).).",
"^.-X^.(.^.(./.%XoX}.i.n = * : @ $ $ 5 : ; 3 i f g g j u r ; $ , 4 & * * % % B ~ ].XX%X:X^.(.W.).(.(.",
"^.-X^.^.(.^./.oXOX0.v + : 1 9 o o . . . o u f j g g j f i 1 . # ; 2 2 1 ; : $ % / |.7X~.^.(.(.^.(.(.",
"(._.!.^._.~.%XOXv.n + 2 q u w p w w 0 O 7 f h p j j j h a 6 o o e u u i u r 1 : m M.2XR.(.^.(.^.^.^.",
"(.^.!.)._.~.7X}.R = : 2 a $.g p h p w y p p j h j j j j j w w a f j h l l a 0 < * R [.*X(.^.Q.-X^.(.",
"(.(.).)._.~.7XB.B % 3 i f f p h f k f f d d d h j j j d j j j f f f f a f h a 1 $ B B.=XQ.>X~.~.(.(.",
"^.(.).^.^.&X+Xv.n $ 2 k f h h h a f f d d p p j d d p p j h j j j j f f f h f 0 : n c.7X/.-XQ.-X(.(.",
"Q.-X!._./.oX|.f.* @ r k k f g g j d d d p p s s h } d s j j j d d j k f a j j 0 < & g.OXR.9X(.(.(.(.",
"-X(.0X/./.2XH._ > ; 9 f d j g g d j d j s h ] X.X.] ] ] h j j j d s f f j h j w . 4 q. X2XR.!._.(.^.",
"(.(./.%X2XV.q.N : . 9 p d d j j d j d p d | #.#.#.X.#.#.| h j d d j d p p h j 6 . # N ` M.2X*X^.(.(.",
"^.-XT.2XV.R & $ . X 7 p d j j j j j d d ] #.#.X.X.X.#.#.#.| h d s s j j j d j 6 1   $ % Y n.+X-X(.(.",
"(.&XoXB.S = $ 2 e y s ] ] h h h j p j ] #.#.{ { O.O.X.#.#.#.] s 8 s ' } } ] ] d a i 2 ; * C m.7X/.(.",
"(.oX}.^ % : q l @.#.#.#.#.#.@.$.] } ] #.#.X.{ { O.O.O.{ #.#.#.} ' } { #.#.#.#.+.$.@.k 9 : & ( U.%X(.",
":X.Xb.n $ 2 a $.#...{ { O.#.#.#.#.X.{ { O.{ { O.{ { { O.O.#.#.{ { O.#.O.O.O.O.#.X.+.1.j 1 $ m c.oX(.",
"&XXX/ = ; w %.#.| #.{ O.O.O.+.#.#.O.O.{ { O.O.O.O.{ O.O.O.{ O.O.{ O.{ { O.O.O.O.;.] #.%.u ; * ~ XX/.",
"%X[.R $ o +.] #.| { O.O.O.{ O.{ #.O.{ { { { O.O.{ { { { O.O.O.O.{ { #.O.O.O.o.O.O.O.X.%.a 1 $ T [.%X",
"=XU.R > . +.%.X.#.#.O.O.[ { O.O.O.O.O.O.*.*.*.*.*.*.*.*.*.O.O.O.{ { ..{ O.O.o.o.O.O.X.%.l 1 # T }.oX",
"=X}.T + o +.#.#.#.#.{ { [ [ O.O.O.O.*.;.;.:.:.:.:.:.:.:.:.;.*.*.O.{ { { { [ &.&.O.X.#.@.c < # F [..X",
"=X}.R + 2 h +.#.#.#.{ O.O.[ { O.O.*.;.:.:.:.:.,.:.,.:.:.:.:.:.>.;.{ { O.{ [ [ O.O.#.#.+.k < $ T [.oX",
"*XY./ 4 ; f $.] #.#...O.O.O.O.O.;.>.,.:.:.:.:.:.:.:.:.:.:.,.:.,.>.;.O.O.{ { { O.O.#.#.$.x : = / XXoX",
"/.oXg.M   e @.#.#.....O.O.O.O.*.,.,.:.:.:.:.:.:.:.:.:.:.:.:.:.:.,.>.*.&.[ { { X.#.#.X.%.e @ n d.oX%X",
"!.8XN.F $ o d %.#.#.{ O.O.{ *.>.<.:.:.:.:.:.:.:.:.:.:.:.:.:.:.:.:.:.=.&.[ { #.#.#.#.X.] o $ S V.;X&X",
"!.%XOXa.4 ; u | #.X.X.{ { { ;.<.,.:.:.:.:.,.,.:.:.:.,.,.,.:.:.:.:.,.:.&.[ { #.| +.+.#.a ; M i.+X%X~.",
"E.~..X|.E * 2 k #.O.X.{ O.O.;.<.=.,.,.,.:.:.<.,.,.:.:.=.=.:.,.,.:.:.r.*.[ O.] #.| @.z : = p.[.*X(.(.",
"J.I.T.6XB.T + q @.#.] ;.X.[ ,.>.:.,.-.,.:.:.,.,.,.:.=.=.=.:.,.,.:.,.:.*.{ X.#.| @.5.5 b p.[.%X(.(.(.",
"K.L.Q.~.8XP.` 4 2 4.$.] ;.;.O.,.<.,.=.-.-.-.=.,.,.-.-.-.-.,.,.,.<.>.<.;.*.O.} 7.G t W M.OX%X-X(.(.(.",
"I.L.>X^./.7X[.g.F t G  .#.#.} >.<.,.:.-.2.-.=.=.,.,.=.=.-.-.:.:.>.e.O.{ ;.#.@.G t.l.#X3X*X-X(.!.(.(.",
"E.Q.,X).^./.oX2XN.q.) P G @.{ ;.>.,.,.-.-.-.-.:.:.:.=.=.-.-.-.=.,.;.;.#.| 3.P j.H.5XrX8X0X(.!.0X(.^.",
"^.>X).!.).(.~.%X2X<XA.k.8.H @...#.>.:.=.-.-.,.:.,.,.:.,.-.-.-.=.;.>.] @.5.I l.4XrX8XqX>X!._.0X^.^.^.",
"_.^.^._.(.Q.(.(./.%X+X|.z.) 6.z $.#.;.*.=.-.:.:.,.:.:.,.-.=.=.*...$. .H u.C.3XrXqXwX0X_.^.^.(._.^.^.",
"^.>X(.Q.(.(.0X!.)._./..X|.C.u.P 5.@.| #.;.;.;.;.;.;.;.;.;.;.#.|  .5.6.k.F.3XtXqXeX_.!.(.>X(.!.(.^.^.",
"(.(.(.(.(.(.(.(.)._.(./.+X$XD.l.8.6.G  .@.#.#.#.#.O.O.#.$. .G H L y.Z.{.+X;XqXwX_._.(.^.^.^.(.(.^.^.",
"(.(.(.(.(.(.(.(.(._._.!./.oXOX|.Z.j.) K H H 4.3. . . .z J K 9.y.Z.F.OX+X&X^.(.>X(.(.(.^.^.^.(.(.^.^.",
"(.(.(.(.(.(.(.(.(.^.^.(.(./.=X;X$X{.S.z.x._ ! U L L I 8.u.z.A.|.OXoX*X~.^.^.(.(.(.(.(.(.(.(.(.(.(.(.",
"(.(.(.(.(.(.(.(.-X^.^.(._.(.~.~..X+X+X$X|.{.G.F.F.S.A.D. XOX+X=X:X~.^.^.(._.).(.^.(.(.:X(.(.(.(.(.(.",
"(.(.(.(.(.(.(./.(.(.(.).^.^.:X:X:X~.T.R.*X;X*XoX;X+X+X+X+XoX&X(.>X_.(.(.(.(.).).).^.(.(././.(.(.(.(.",
"(.(.(.(.(.(.(./.^.(._.).^.(.-X-X^.^.(.:X~.~.^.^.(.~./.&X/./.!.(.^.^.^.(.(.^.(.).).(.(.(.(.(.(.(.(.(.",
"(.(.(.(.(.(.(.(.^.(.).)._._.(.^.).).^.~.~.:X:X-X>X(.^.^.(.(.(.^.^.^.(.>X(.(.(.(.(.(.(.(.(.).).(.(.(.",
"(.(.(.(.(.(.(.(.(.(.^.).).(.(.(.).).(.^.~.~.-X>XwX>X^.^.^.^.(.(.-X(.(.^.^.^.^.(.(.(.(.(.^.).).(.(.(.",
"(.(.(.(.(.(.(.(.(.(.(.(.(.(.(.(.(.(.(.^.^.-XqXqXwXwX0X(.(.(.(.(.(.(.(.(.(.(.(.(.(.(.(.(.(.(.(.(.(.(.",
"(.(.(.(.(.(.(.(.(.(.(.(.(.(.(.(.(.(.(.(.^.>XwXwXwXwX0X>X(.(.(.(.(.(.(.(.).).).(.(.(.(.(.(.(.(.(.(.(."
};
