/* XPM */
static char *bb4b0c42b1b04949aa0de178d928f2ffPeTVAW84kKI46C52[] = {
/* columns rows colors chars-per-pixel */
"50 50 177 2 ",
"   c #71796E",
".  c #647177",
"X  c #64767C",
"o  c #68777C",
"O  c #67797E",
"+  c #6A7A7E",
"@  c #767B72",
"#  c #7A7E77",
"$  c #757F7A",
"%  c #7B7D7E",
"&  c #7D8077",
"*  c #7E857C",
"=  c #82857E",
"-  c #84887A",
";  c #6B7C82",
":  c #707E84",
">  c #6D8086",
",  c #6F8289",
"<  c #718287",
"1  c #7D8182",
"2  c #72848B",
"3  c #78878E",
"4  c #76898F",
"5  c #768990",
"6  c #7C8D94",
"7  c #7E9196",
"8  c #828480",
"9  c #838A82",
"0  c #888D87",
"q  c #86918B",
"w  c #8A948C",
"e  c #999C8C",
"r  c #808F94",
"t  c #819195",
"y  c #8C9495",
"u  c #8D9894",
"i  c #84959B",
"p  c #89969D",
"a  c #86989F",
"s  c #899A9E",
"d  c #979A91",
"f  c #9C9D92",
"g  c #939D99",
"h  c #9FA193",
"j  c #A7A99B",
"k  c #879AA0",
"l  c #8B9CA3",
"z  c #909FA5",
"x  c #8EA0A6",
"c  c #8FA2A9",
"v  c #91A2A6",
"b  c #9CA5A4",
"n  c #9EAAA6",
"m  c #93A4AB",
"M  c #98A7AD",
"N  c #96A9AE",
"B  c #9AABAE",
"V  c #94A6B0",
"C  c #97AAB1",
"Z  c #9AACB2",
"A  c #9CAEB8",
"S  c #9EB0B6",
"D  c #9FB2B8",
"F  c #A2ADA7",
"G  c #A2ADAC",
"H  c #AEB0A5",
"J  c #A5B1AF",
"K  c #B3B0A7",
"L  c #BDBDAD",
"P  c #A1AFB3",
"I  c #A1B1B6",
"U  c #ABB7B5",
"Y  c #A2B4BB",
"T  c #A9B6BC",
"R  c #A5B9BE",
"E  c #ABBABE",
"W  c #B0BEBE",
"Q  c #CAC9B7",
"!  c #CCCBBB",
"~  c #D1CEBF",
"^  c #D4D3BD",
"/  c #E6D7AE",
"(  c #E5DCAE",
")  c #E9D9AE",
"_  c #E7D7B5",
"`  c #E9D6B2",
"'  c #E5DBB5",
"]  c #EBDBB4",
"[  c #E2D7BB",
"{  c #EDD7B8",
"}  c #E4DBBB",
"|  c #ECDCBA",
" . c #F2DDBC",
".. c #ECE0B4",
"X. c #EBE2BC",
"o. c #F3E3B7",
"O. c #F3E2BD",
"+. c #A7BAC0",
"@. c #AABDC1",
"#. c #A9BCC2",
"$. c #AABDC3",
"%. c #A9BEC2",
"&. c #ACBFC3",
"*. c #ADBCC1",
"=. c #ABBEC4",
"-. c #AABFC4",
";. c #ACBFC5",
":. c #ADBEC5",
">. c #ABBDC3",
",. c #B1BEC3",
"<. c #AFC1C5",
"1. c #ADC0C6",
"2. c #AEC1C7",
"3. c #AEC0C6",
"4. c #AFC2C8",
"5. c #AFC2C8",
"6. c #B1C3C7",
"7. c #B3C2C5",
"8. c #B0C3C9",
"9. c #B2C3CA",
"0. c #B2C5CB",
"q. c #B1C5CA",
"w. c #B3C6CC",
"e. c #B5C7CD",
"r. c #B2C4CB",
"t. c #B5C9CE",
"y. c #B6C9CE",
"u. c #B6C9CE",
"i. c #B9CBCE",
"p. c #B4C7D1",
"a. c #B7CAD0",
"s. c #B7CCD1",
"d. c #B6CAD1",
"f. c #B9CDD2",
"g. c #BECFD3",
"h. c #BBCED4",
"j. c #BDCFD5",
"k. c #BACDD3",
"l. c #B9CDD8",
"z. c #BDD0D6",
"x. c #BCD1D6",
"c. c #BED1D7",
"v. c #BDD1D5",
"b. c #BFD2D8",
"n. c #BFD2D8",
"m. c #CDCFC2",
"M. c #D3CFC3",
"N. c #D0D1C1",
"B. c #DBDAC3",
"V. c #C0CFD4",
"C. c #C0D3D7",
"Z. c #C0D3D9",
"A. c #C0D1D8",
"S. c #C1D4DA",
"D. c #C0D5DA",
"F. c #C2D5DA",
"G. c #C6D6DB",
"H. c #C3D6DC",
"J. c #C2D5DB",
"K. c #C7D9DD",
"L. c #E4DEC2",
"P. c #EBDDC3",
"I. c #E1DDC9",
"U. c #F1DDC2",
"Y. c #E6E1C4",
"T. c #EAE2C3",
"R. c #E6E1CB",
"E. c #EAE4CC",
"W. c #EEEACD",
"Q. c #F5E3C3",
"!. c #F8E6C0",
"~. c #F8E8C7",
"^. c #F6E7C8",
"/. c #FAEACA",
"(. c #EFEBD2",
"). c #C7DAE0",
"_. c #C8D9E0",
/* pixels */
": z *.T T T +.#.4.Y Z D D D Y +.+.+.+.+.+.+.Y D D Y D R #.+.#.R #.#.R Y Y Y Y D Y #.#.R R =.1.#.l ; ",
". m g.i.y.i.a.w.q.+.Y Y Y D R 8.s.y.q.w.s.f.<.D D Y Z =.f.q.y.s.e.f.e.R D Y Y D =.y.w.s.y.5.w.z.m O ",
"; Z G.V.g.z.z.f.F.<.D D Y D #.z.F.b.z.z.Z.j.<.D Y Y A <.F.z.z.j.k.Z.k.;.Y Y Y D #.b.z.H.F.z.x.F.m ; ",
"o t M v m v c v m Z Z Z Y D N m l x v m m m C D Z D D N c m m l m x m Z D Z Z Y C m x k x m m N t ; ",
": 6 i t i i t i 5 Y a.<.4.y.Y l i i i i 6 t C e.8.8.j.A 6 i l l i 7 k Y q.q.8.y.D 7 i i l i 7 i 5 ; ",
"+ t m l x v x l l #.z.z.b.Z.;.v l l l l l x Y Z.Z.e.Z.#.a l l a l l m #.z.F.b.Z.R l m l x l c N i ; ",
"; v <.T T #.#.#.+.C l l x c l l l l l l l i l m v l v v l l l l l l l x v x l l Z R #.+.+.#.#.#.l ; ",
"+ v q.*.*.#.;.4.8.C a 7 6 6 6 6 6 6 t t t 6 6 5 6 t 5 6 6 6 t 7 6 6 6 6 6 6 7 a N q.R 8.4.#.#.q.v ; ",
"+ v 6.#.T #.=.=.=.Z m m v N N l v v v v v v v v m m v v v v v v v v M M M N m x N =.=.;.=.#.+.4.v ; ",
"o z 6.*.<.6.<.#.#.N c C C C A Y A A A A A A A A Z Z Z Z Z Z A A C C A A Z A Z N C ;.#.#.=.;.=.w.c ; ",
"+ v 6.T R #.=.<.<.N x A I C C C C C C C C C C C C C C C C C A A C C C C C C C v Z <.=.;.;.=.#.<.x ; ",
"O x 6.*.*.<.<.<.q.Z m C C C C C A A Z Z Z Z Z Z C C C C C C C C C C C C C C C v N ;.=.;.<.<.;.q.v ; ",
"; v <.T #.*.#.+.#.N v C N N Z A C C C C C C C C Z Z Z C C C C C Z C Z C C Z C m N ;.#.#.R +.#.q.l X ",
"O v y.<.*.*.<.4.a.C x Z A C C C C C C Z Z Z Z A C C C C C C C C C C C C C C C v C q.w.q.4.<.;.w.N ; ",
"+ Z K.G.F.F.Z.F.H.Y v C Z C A A C C C C C C C C Z Z Z Z Z Z Z Z A C C C C A C m Y j.F.F.H.H.Z.).Z ; ",
"; s I M N Z Z C Z c m Z C N Z C Z A A A A A Z C C C C Z Z A A A A Z Z C C A C v l Y A C N C C A l X ",
"; 5 i t l l i i i l N C A N v l l l l v l l v N C Z N l l l v l l l l v C I M m l i i a i i p i 6 ; ",
"; 6 l i l l i l l l N C Z l l i 6 6 6 t 7 t i a C C l i 7 6 t 6 t t i i z Z Z M l l l l l l l l t ; ",
"; i A N N N N C C v N Z C l l N Z C C C C C v l v v l v C C C C C C C l l C Z N x N N N N N N C i ; ",
"; x 8.#.#.;.;.;.;.C v C C l N #.;.;.;.;.<.;.D l l l l A 8.;.=.;.<.;.#.N l N Z v A ;.8.#.;.;.;.e.l ; ",
"X l 8.;.;.;.#.*.8.C l v v l v #.;.#.#.#.;.#.Z i l l a C ;.;.#.;.;.;.#.N i v M l B #.;.#.;.#.#.q.v ; ",
"; v e.;.;.;.;.;.#.C l N N v N Y 8.<.=.#.=.#.D l C m x A ;.;.;.<.;.;.#.C l M N x C ;.<.#.;.#.#.8.v ; ",
"; l ;.#.#.#.#.;.;.Y A Y Y Y Y ;.#.#.#.#.#.<.#.A Y D D +.<.;.;.#.#.=.;.Y D Y Y D Y ;.<.=.<.=.#.q.l + ",
"; l 8.;.;.;.;.;.#.#.Y Y A Y Y ;.;.;.<.;.=.;.#.D Y Y Y #.#.#.<.;.#.;.;.Y Y Y D Y Y =.=.#.=.#.=.q.v ; ",
"+ v <.Y #.;.Y ;.#.Y A Y Y D Y #.<.#.=.#.#.=.Y Y Y Y D Y #.#.=.#.=.=.#.Y D Y Y D Y ;.+.#.#.;.+.w.x X ",
"+ M i.#.#.<.#.;.;.#.A Y Y A Y =.#.#.<.#.#.<.Y D D D A +.4.=.<.;.#.<.;.Y D D Y Y R q.#.q.q.#.=.y.C ; ",
"X m C.f.z.G.b.f.b.4.D Y D D ;.k.z.b.H.F.F.F.4.Y Y Y Y q.z.z.z.j.f.z.f.=.Y Y Y D <.Z.a.j.Z.b.F.k.l ; ",
"; 7 R y.f.q.4.y.y.#.D Y Y D +.w.w.q.q.q.w.w.#.Y Y D D #.q.y.y.q.a.y.q.#.Y D D A #.a.e.q.q.e.w.#.7 O ",
"> 4 l l l l c c c N Z Z A A C m v x x v v c N A Y D D N l x v l l l x C D D D Y N l v v x l k x t ; ",
"O 6 l i i a x i i A w.4.8.y.Y k i a l l i i A e.#.<.8.A i i l l l i x Y 8.4.;.<.D i k i a l a l 5 ; ",
"> < 7 l x i i l l R H.b.Z.H.=.c l l l l i l #.F.F.Z.F.#.l l l a l l N ;.j.Z.H._.Y l l i l l l 6 : ; ",
"< < ; X ; ; > ; X ; 4 > > 5 , ; O ; ; ; ; X ; 2 < ; 2 ; X ; ; ; ; ; ; < 2 , > < 2 X ; ; ; X ; ; 3 < ",
"; x R B N N Z N Z N N N m m m N B N Z Z C C Z c V C m Z A C Z C C B N N m C C N N B B N C C Z D v + ",
"+ x q.q.i.y.s.e.f.a.s.j.j.k.k.z.v.i.a.a.a.d.d.l.l.a.p.k.a.p.j.y.f.i.s.a.a.s.f.a.f.g.i.i.i.e.w.y.l + ",
"+ i Z N N m N N N N Z Y Y Y Y Y Z Z C C Z C m c C m v C m m N m N m m m m m N m v m m M N N m Z l + ",
"> l D Z Z N Z Z C C A Y Y Y Y Y Y S N N Z Y *.E T *.T T Y A C D Z Z A A Z Z Z C Z Z B Z Z Z Z D s ; ",
"X i Z B Z Z Z Z Z Z Z D D D D D Y C Z T E W U n n n G J E *.Y Z P D D D C C C C Z Z n B N v x m i ; ",
"< l I B B B Z C Z C C C C Z C C V Z *.7.F w 9 * & @ 8 0 q G 7.,.T Y Y Y Z C Z Z C B Z Z B x l l t ; ",
"+ i N N S Z Z Z Z Z Z Z Z Z Z C Z ;.E g * - h L L L L j 9 * g W E T Y Y Z C Z Z Z Z Z Z B x k l 7 ; ",
"; 6 x m Z B Z Z C C C C Z Z C C *.,.u   e ^ R.E.R.E.R.I.N.e @ g ,.T Y Y Z Z Z Z C C B Z B m x m 7 ; ",
"; r m m Z Z C Z C A N C A C N Y ,.b # e ^ E.L.} P.P.} L.(.^ e # n ,.*.Z D Z Z A C Z Z Z Z B B D s ; ",
"< i Z N Z Z Z Z N A Z Z Z N A *.T % f B.L.' | | | | | T.[ Y.I.f 1 B 7.Z N Z Z V C Z Z Z Z B B D s ; ",
": s I B Z Z A D Z Z Z Z C N Y ,.y = Q W.' ' O.] Q.] ` O.| } E.~ 0 u W I N C Z Z C Z C Z Z B B D s ; ",
"+ p I B Z I Y Y Y Z C Z C C #.T 1 f B.Y.' ] ]  . . . ./ | | [ R.d $ P ,.A C N Z C Z C Z Z B B S s ; ",
"; p I B D Y R R #.A C Z C Z ;.P 1 K L.X...] | | {  .O.) ] X.} R.H $ G W B C C Z C Z C B B B B S s ; ",
": s P B Z I Y Y Y Z Z Z C C ,.P % ! E.} ( ..O.{  .{ ` o.o.( ' E.m.9 F E M Z C Z C Z Z B B B B D s ; ",
"; p P B Z Z Z Z Z C Z Z C B ,.G 8 M.L.' ..] _ Q.U.Q.] ) ..] ' Y.! * b W P Z C C C Z B B B B B S s ; ",
"; p P B Z B C Z Z C C C A C 6.n 8 ! Y.X.' ..| Q./. .O.` ) o.] T.Q 9 F W B N C Z C Z C Z Z B B S s ; ",
"+ p Z B Z C Z Z Z Z C Z C Z *.n = ! T.' ] O.Q.^./.Q.!. .] ] ] T.! * n ,.Z Z Z C Z Z C C Z C B S s ; ",
"+ p Z B Z C Z Z Z Z C Z C Z *.B * ! T.| ] Q.~././.Q.!. .| | | T.! = F 6.D D Y D Z Z C C Z C B P s ; "
};
