/* XPM */
static char *_719e2eadf774caebe01e982599bb6e4GNl7aBtP4za6pjEL[] = {
/* columns rows colors chars-per-pixel */
"50 50 235 2 ",
"   c #6C7A7A",
".  c #8C6648",
"X  c #95684C",
"o  c #9A714A",
"O  c #9C6C53",
"+  c #976D5A",
"@  c #9E7154",
"#  c #9C7558",
"$  c #8E6A50",
"%  c #A96C49",
"&  c #A8734D",
"*  c #A36B54",
"=  c #A56754",
"-  c #A47154",
";  c #AA7553",
":  c #AB7A5B",
">  c #A67959",
",  c #B37C5B",
"<  c #BB7B5C",
"1  c #B87758",
"2  c #8B7369",
"3  c #9C7562",
"4  c #937A6C",
"5  c #9B7C6B",
"6  c #977A65",
"7  c #8A7C75",
"8  c #997D73",
"9  c #A27D64",
"0  c #AD7D63",
"q  c #A47D6C",
"w  c #B47D63",
"e  c #C47C53",
"r  c #C87857",
"t  c #D77E5D",
"y  c #B9835D",
"u  c #A38259",
"i  c #958174",
"p  c #96857C",
"a  c #9E897C",
"s  c #988478",
"d  c #8B8278",
"f  c #A5826B",
"g  c #AA826C",
"h  c #AA8569",
"j  c #B48364",
"k  c #B5846C",
"l  c #B48B6B",
"z  c #BA8966",
"x  c #B7946D",
"c  c #A28373",
"v  c #AA8A78",
"b  c #B78A72",
"n  c #AC9478",
"m  c #B79575",
"M  c #C7855B",
"N  c #D4885D",
"B  c #C48C65",
"V  c #CB8B64",
"C  c #C88C69",
"Z  c #DE8461",
"A  c #D58964",
"S  c #CB946B",
"D  c #C9946A",
"F  c #D7976A",
"G  c #C58E73",
"H  c #C69977",
"J  c #D49C72",
"K  c #D89A73",
"L  c #E39D6D",
"P  c #E19D70",
"I  c #CBA17D",
"U  c #D7A37A",
"Y  c #E2A57B",
"T  c #6B7C82",
"R  c #69818A",
"E  c #778788",
"W  c #6D8996",
"Q  c #738B9A",
"!  c #7A929C",
"~  c #688FA4",
"^  c #6C95AA",
"/  c #7898A8",
"(  c #6C9CB6",
")  c #749DB4",
"_  c #789DB6",
"`  c #738FA4",
"'  c #7EA3AE",
"]  c #74A1B5",
"[  c #7CA3B5",
"{  c #74A4BB",
"}  c #7CA3BB",
"|  c #7EA9BC",
" . c #77A6C2",
".. c #84898B",
"X. c #868784",
"o. c #9B8B83",
"O. c #9A8A87",
"+. c #99938C",
"@. c #8B9499",
"#. c #969593",
"$. c #9C9493",
"%. c #9A9B9B",
"&. c #999898",
"*. c #8D8F91",
"=. c #A58D81",
"-. c #A59283",
";. c #A79489",
":. c #BE9E83",
">. c #A59B94",
",. c #9EA59E",
"<. c #AAA899",
"1. c #B2A695",
"2. c #849DAC",
"3. c #879CA6",
"4. c #939AA1",
"5. c #879EB0",
"6. c #89A3AA",
"7. c #96A4A8",
"8. c #82A5B9",
"9. c #99B4BB",
"0. c #A3A4A3",
"q. c #A9B7B5",
"w. c #B8BDB5",
"e. c #B3B9AF",
"r. c #C99E85",
"t. c #D69F80",
"y. c #CBA483",
"u. c #C8A788",
"i. c #D3A683",
"p. c #D3AC8B",
"a. c #DBA986",
"s. c #CCB38C",
"d. c #D4B58C",
"f. c #DCB48A",
"g. c #C5AA92",
"h. c #DAAF92",
"j. c #D3AC93",
"k. c #CDB396",
"l. c #D4B492",
"z. c #DBB594",
"x. c #D4BA95",
"c. c #DCBB94",
"v. c #D3B69B",
"b. c #D5BB9C",
"n. c #DCBB9C",
"m. c #DEB798",
"M. c #E1AB84",
"N. c #E4B78D",
"B. c #ECBB92",
"V. c #EDBE9E",
"C. c #E4B898",
"Z. c #D8BBA3",
"A. c #E3BDA2",
"S. c #B8C5BC",
"D. c #DAC19C",
"F. c #E4C49D",
"G. c #ECC49C",
"H. c #EAC89B",
"J. c #F3C39D",
"K. c #F6CC9C",
"L. c #F2C08F",
"P. c #DDC2A4",
"I. c #D9C5A8",
"U. c #C7C6B6",
"Y. c #D2CBBB",
"T. c #E4C3A4",
"R. c #EBC4A3",
"E. c #E4CAA4",
"W. c #EBCAA5",
"Q. c #E6C3A9",
"!. c #E4CBAB",
"~. c #ECCCAB",
"^. c #ECC5A9",
"/. c #F4CCA4",
"(. c #FCCCA4",
"). c #F2CDA9",
"_. c #FCCEAC",
"`. c #F7C6A4",
"'. c #ECD3AC",
"]. c #EDDBAD",
"[. c #E7D6AA",
"{. c #F2D1A5",
"}. c #F3D3AD",
"|. c #FCD3AC",
" X c #FFDAAC",
".X c #F6D8A7",
"XX c #E6CDB2",
"oX c #F7CEB4",
"OX c #ECD4B3",
"+X c #E6DBB4",
"@X c #ECDCB5",
"#X c #E6DDBA",
"$X c #ECDCB9",
"%X c #E8D5BA",
"&X c #F4D4B3",
"*X c #FDD4B3",
"=X c #F2DBB5",
"-X c #FDDAB4",
";X c #F4D6BA",
":X c #FDD5BA",
">X c #F2DCBA",
",X c #FCDBBB",
"<X c #E7E0B6",
"1X c #EBE1B5",
"2X c #E5E1BB",
"3X c #EBE1BB",
"4X c #F3E1BE",
"5X c #FCE2BD",
"6X c #F3E1B6",
"7X c #F2E2AF",
"8X c #90B4C6",
"9X c #ADBCC1",
"0X c #9EC5D4",
"qX c #B4CBD3",
"wX c #B4C5CA",
"eX c #DEDCCD",
"rX c #D9D7C5",
"tX c #D5DBD1",
"yX c #C9D1CB",
"uX c #EBDDC2",
"iX c #EBDECB",
"pX c #E4DDC5",
"aX c #FEDEC2",
"sX c #FADAC0",
"dX c #DBE2D6",
"fX c #E9E2CA",
"gX c #FDE3C3",
"hX c #FCE7CA",
"jX c #FEEBCB",
"kX c #F6E4C4",
"lX c #E3E5D4",
"zX c #FDF6D7",
"xX c #FFEED5",
"cX c #E2ECEA",
"vX c #D0E6F4",
/* pixels */
"#X#X$X$X=X=X=X=X$X>X>X$X+X+X+X@X1X].=X-X:X*X_.`.B.B.B.B.J./.*X,X*X=X].1X<X+X2X+X#X=X=X=X=X$X$X<X#X$X",
"#X#X#X$X=X=X=X=X$X$X$X$X+X$X1X@X].].-X*XV.a.K C B B B B S U N.V.*X-X-X].+X3X3X3X#X$X=X=X=X$X$X$X#X$X",
"#X#X#X$X$X$X=X$X>X@X$X$X$X$X$X@X X-XJ.J B B V F A V C C C C G G t.V.-X-X=X$X[.#X$X$X$X$X=X$X$X#X$X$X",
"#X#X#X#X$X$X$X$X$X@X$X$X+X@X$X]./.N.B z H G j z j k k k k b b G G H C.,X-XOX4X+X$X$X$X$X$X$X$X$X$X$X",
"$X$X$X$X#X#X$X#X$X@X$X$X@X=X>X&XC.G k b c i a o.o.o.o.o.a c c f k G G C.,X;X$X4X$X$X$X$X$X$X$X$X$X$X",
"$X$X$X$X#X#X#X#X$X$X$X$X@X>X-XT.G b v v o.>.%.*.&.&.&.&.$.$.;.=.g 0 k H T.,XOX>X$X$X#X#X$X$X$X$X$X$X",
"$X$X$X$X$X$X#X#X#X#X$X$X@X,XW.y.3 c v -.>.$.*.&.&.#.#.+.$.$.$.>.v b f > u.&X;X>X=X$X$X#X$X$X$X$X$X$X",
"$X$X$X$X$X$X$X#X#X$X$X$X=X-Xz.> g v -.=.o.o.o.p p s a a o.O.O.o.v v h f h l.gX&X=X$X#X#X$X$X$X$X$X$X",
"$X$X$X$X$X$X$X$X3X$X$X=X,X~.l > j 9 b 9 f g 9 b b w w 0 b q g q f l g h # m ).,X=X$X#X#X#X$X$X$X$X$X",
"$X$X$X$X$X$X$X$X$X@X=X>X,Xz.j : ; j : , j > G _.a.< r 1 < w w j 0 j 0 w : k A.*X=X$X#X#X#X$X$X$X$X$X",
"$X$X$X$X$X$X$X$X$X$X=X&X-Xy.> > 1 1 ; , z f.*X(.`.S C V e e e 1 < < < < 1 - y.5X=X$X#X#X#X$X$X$X$X$X",
"$X$X$X$X$X$X$X$X@X$X>X,X-Xm : j G S a.B.|. X X-X|.M.C V A r r r r r r 1 < ; l ,X=X$X#X#X#X$X=X=X$X$X",
"$X$X$X$X$X$X$X$X$X$X=X&X}.H p._.,X_.-X|.H.c.d.{. X|.J M A A t Z t r r r K i.H }.=X$X$X$X#X$X=X=X$X$X",
"$X$X$X$X$X$X$X$X@X$X=X>X5XR.)._.*X-Xd.l l l x H. X-X(.K V A Z Z Z N A M M._.C.}.=X$X#X$X#X$X$X$X$X$X",
"$X$X$X$X#X$X$X$X$X>X=X>X-X).C.p./.-Xf.l h.:X,X:X*X_.-X(.Y V A N N N N M U J.H.}.=X$X$X#X$X$X$X$X$X$X",
"#X$X$X$X$X$X$X$X#X@XgXjX&XF.z.C.{.-XR.y.sXj.r.:X,X*X|.-X|.S V V M M M B U a.F.~.=X$X$X#X$X$X#X#X$X$X",
"#X$X$X$X$X$X$X$X+X$XgXjX,XT.p.z.*X-X&XgX,X9 0 ).*X-X-X-XG.> j J.M.J B z i.C.A.!.>X>X$X$X$X$X$X$X$X#X",
"#X$X$X$X$X$X$X#X#X3XkXgX;XW.c.y.~.,X;XgXgX6 h R.|.G.F.-XW.o x 5XgX`.J.a.I R.^.;X>X$X$X+X@X$X$X>X$X#X",
"#X$X$X$X$X$X$X#X#X#X@X5X5X).)././.*X*X,XxXZ.s.5Xc.c.d.F.-Xp.A.hX&X*X*X/.J./.C.&X=X$X+X+X@X$X$X$X$X$X",
"#X#X#X$X$X=X=X$X$X#X+X$X5Xc.a.J.|.|.*X:X;XgX>X=X'.F.F.}.,XaXgX:X*X-X|.|.(.I I ,X=X$X+X+X@X@X$X$X$X$X",
"$X$X$X$X$X$X=X$X@X3X3X@X,Xp.; < U |._.,X,X&X>X5X5X5X5X~.A.*X*X*X-X|._.S y & H -X$X$X+X+X@X@X$X$X$X$X",
"$X$X$X$X$X@X=X$X$X+X3X$X=Xz.; % y (.|._.-X'.5XzXzXzXjX:.# R.,X*X}.,XJ.& % ; z.-X$X$X$X$X$X$X=X$X$X$X",
"$X$X$X$X@X].@X$X4X#X#X$X&Xz.y , ; H -X-X/.,XgXP.v.v.k.h m &X*X*X,X_.D 1 , ; C.-X$X#X$X$X=X$X=X$X$X$X",
"$X$X$X$X@X].@X$X+XkX%X$XaXn.h > 0 @ H *X-X|.*XoX:.f n y.&X,X&X,X&Xr.- w - z ~.>X$X#X$X$X>X=X$X$X$X$X",
"$X$X$X$X$X+X+X+X$X#X$X%XgXXXv 6 5 6 $ l V.,XoXaX:X,X&X5X5XOX;XZ.i 4 5 3 # b ;X>X$X$X$X>X>X$X$X$X$X$X",
"$X$X=X$X$X$X$X<X3X@X>X$X%XiX>.p o.8 3 + : p.C.A.^.).W.W.P.I.>.7 X.X.O.p i g.%X>X$X$X$X#X$X$X$X$X#X#X",
"@X$X$X$X$X#X#X#X+X$X$X%XiXeX0.4.4.*.7 + X w H l m x l n -.>...E ! / 3.4.&.Y.iX%X$X=X=X@X$X$X#X#X#X$X",
"@X@X$X$X$XuX#X#X3X3X#XpXtXq.6.5.5.4.X.4 + X l H m n n 1.0.*.! ` ~ ) / 2.6.wXlXpX@X=X=X$X$X#X#X#X#X#X",
"+X$X$X$X$X$X$X$X#X#XpXdXq.3.8._ 8./ @.7 2 $ o m g.g.1.$.@.W ~ ^ ^ ) ( ] [ 6.S.lX#X@X+X$X#X$X@X$X$X$X",
"$X$X$X$X>X>X=X$X#XpXlXS.3.' |  ._ _ 2.*.7 6 $ + v -.&.@.Q ^ ^ ( / ^ { { { / 7.yXfX$X+X$X3X#X@X$X=X$X",
"#X$X#X$X=X=X=X=XuXfXtX6.' ] ( { { 8./ 3...7 5 3 5 7 ..! ^ ( ( ) / / [ (  .] 3.q.eXiXuX#X#X$X=X=X=X=X",
"uX$X#X@X@X=X=X>XiXrXq.6.| { ( { 0X8X) / 3...2 5 4 i ..! ^ ~  ./ 7.9X9.) ) [ 2.7.yXrXfX#X#X$X=X=X=X=X",
"!.#X3X+X+X<X3X#XlX7.R ` _ _ _ 8XvXqX~ ] | 2.&.7 s 5 p #.3.8.| W q.cXqX6.[ [ ` Q   U.fX$X$X$X@X>X$X$X",
"P.!.+X1X<X+X#XfXeX0.T T R Q / qXcXyX! ^ | 8.7.+.i 5 8 O.%.7.! ! U.lXdX9.W Q R   X.U.fX@X@X=X@X@X#X#X",
"Z.P.'.3X$X+X@XuXiXY.w.,.X.  E yXlXeX@.E 6.2.7.0.;.v 4 4 p +.d $.lXeXdXw.E   E q.U.fXjX>X$X$X@X$X$X$X",
"I.XX$X>X@X@X=X$X$X%XpXrXU.1.<.rXfXfX+.d %.%.&.$.;.=.q 9 9 c 4 -.%XiXzXrX<.w.rXrXrXfXjXhX4X$X@X$X$X$X",
"XX$XsX=XOX=X=XOXOXOXP.OX$X4X$X$X3X3Xn 6 s s s 8 8 g 0 : : : 9 f Z.kXhXjXkXuX#X%XI.$XhXhXkX$X@X@X$X$X",
"uXuX>X=X=X=X=X=X-X&XT.~.W.}.6X].$X@Xm # @ @ # 3 # - % % % & , > j.,X>X5X6X[.'.E.!.gXhX>X%X$X$X$X$X$X",
"2X#X#X$X=X=X=X=X=X~.Q.oX).).}.].4X=XH y M B z y , < e e e M 1 - l.gX~.{. X{.W.W.E.>XgX$X#X$X$X@X$X$X",
"#X2X#X$X$X$X$X$X=XXXQ.^.^.}.W.W.'.-Xf.K P F F K Y U P L F K 1 : y.=X{./.K.G./.F.W.;X>X$X$X$X@X$X$X$X",
"2X2X$X$X$X$X$X$X>X!.Q.^.Q.^.W.E.E.|.a.K F F D L.(.K.(.Y F K y & x W.F.H.R.R.R.R.T.OX=X$X#X$X$X$X$X$X",
"<X<X$X$X$X$X$X$X$X!.A.A.A.T.T.F.F.|.B.J S J U K. X.X XB.J K B o u E.F.F.R.R.T.n.P.OX>X$X@X$X@X$X$X$X",
"$X$X$X$X$X$X=X=X>X!.n.n.F.F.F.F.).)./.B.N.N.F..X]..X.X{.N.B.N.H d.'.D.D.T.T.A.Z.n.OX>X$X$X$X@X#X#X#X",
"$X$X$X$X$X$X=X=X=XE.x.l.c.c.c.F.}.}.*X|././.{..X[.].].=XW././.|.}.=X~.P.v.Z.v.v.b.OX>X$X$X$X@X$X#X#X",
"$X$X$X$X$X$X$X=X>X'.b.s.x.d.l.F.W.gXR.z.i.i.d.].7X6X6X!.u.p.i.C.&X,XW.T.b.k.k.b.P.OX>X$X$X$X@X$X$X$X",
"=X$X$X$X$X$X$X=X$X'.D.x.x.x.x.T.=X,Xb * * O # F.=X[.=Xu.$ @ O O z.aXQ.n.P.k.b.D.I.$X>X$X$X$X#X$X$X$X",
"$X$X#X#X#X#X$X$X>X>X@X+X@XOXOX>X5Xc.- = = = O ~.gX$XgXu.. O = X k oXgXOX'.OX=X[.@X=X>X$X>X$X$X$X$X$X",
"$X$X#X#X#X#X$X$X$X>X$X$X$X>X;X;Xs.u X = = * # XXjX4X,Xy.O * * * O l T.>X=X=X@X6X=X=X$X$X$X$X$X#X$X$X",
"$X$X$X$X$X$X$X$X@X$X$X@X$X>X=Xb.. . . X X . + !.jXjX,Xy.X . X X . . 9 '.>X$X@X3X$X$X$X$X$X$X$X$X$X$X",
"$X$X$X$X$X$X$X$X$X#X@X@X$X$X>XE.l.n.z.h.h.n.x.gXgXgXjX~.p.h.z.z.m.z.l.>X=X$X$X$X#X#X$X$X$X$X$X$X$X$X"
};
