/* XPM */
static char *_b0beb1160054166ac6b1e7084495fb3YsOHeNKGZDZyYfyg[] = {
/* columns rows colors chars-per-pixel */
"50 50 56 1 ",
"  c #CDBD99",
". c #D0C09C",
"X c #D1C19D",
"o c #D2C29E",
"O c #D3C39F",
"+ c #D4C4A0",
"@ c #D5C5A1",
"# c #D6C6A2",
"$ c #D7C7A3",
"% c #D8C8A4",
"& c #D9C9A5",
"* c #DACAA6",
"= c #DECEAA",
"- c #DFCFAB",
"; c #E2D2AE",
": c #E3D3AF",
"> c #E4D4B0",
", c #E6D6B2",
"< c #E7D7B3",
"1 c #E8D8B4",
"2 c #E9D9B5",
"3 c #EADBB4",
"4 c #E9D9B7",
"5 c #EADAB6",
"6 c #EBDBB7",
"7 c #ECDDB6",
"8 c #EADAB8",
"9 c #EBDBB9",
"0 c #ECDCB8",
"q c #EDDDB9",
"w c #EEDFB8",
"e c #ECDCBA",
"r c #EEDEBA",
"t c #EFDFBB",
"y c #EFE0B9",
"u c #F0E1BA",
"i c #F0E0BC",
"p c #F1E1BD",
"a c #F2E2BE",
"s c #F3E3BF",
"d c #F3E4BD",
"f c #F5E6BF",
"g c #F4E4C0",
"h c #F5E5C1",
"j c #F6E6C2",
"k c #F7E7C3",
"l c #F8E9C2",
"z c #F9EAC3",
"x c #F8E8C4",
"c c #F9E9C5",
"v c #FAEBC4",
"b c #FAEAC6",
"n c #FBEBC7",
"m c #FCEDC6",
"M c #FCECC8",
"N c #FDEDC9",
/* pixels */
"00000000000000000000000000007777000000000000000000",
"00000000000000000000000000007777000000000000000000",
"00000000000000000000000000007777000000000000000000",
"00000000000000000000000000007777000000000000000000",
"00000000000000000000000000000000000000000000000000",
"00000000000000000000000000000000000000000000000000",
"00000000000000000000000000000000000000000000000000",
"00000000000000000000000000000000000000000000000000",
"00000000005550005000500000500000500,50550000000000",
"00000000550000505000500000500000500000500000000000",
"0000000050000000000005500050000505;,50550000000000",
"0000000000050ssks0500550005000555;@O=0050000000000",
"0000000000550kxxfy55005000500099=&OO@;500000000000",
"000000005550kxxxzd07000000500099OO@&O@;00000000000",
"00000000500kxxxxxzfu050000000095&O@&@@,00000000000",
"0000000000skxxxxzmxd0500000000955&OO&5s00000000000",
"000000000skxxxxxkxxks055500055000,&&;0050000000000",
"0000000050skxxxxxxxs005550005500055550000000000000",
"00000000000skxxxMxs0500550000500500000000000000000",
"000000000000skxMks05500050000000050000050000000000",
"0000000000550skx0005500050000000005500000000000000",
"00000000550000ss0000055000000000000005000000000000",
"00000000500000000000055000000000500055500000000000",
"00000000000000000555055000000000005500000000000000",
"00000000000000000000000000000000000550000000000000",
"00000000000000000000000000000000000000050000000000",
"00000000000000000000000000000000500000055500000000",
"00000000000000000000000000000000005550005500000000",
"00000000000000000000000000000000000000000000000000",
"00000000000000000000000000000000500005550000000000",
"00000000000000000000000000000000555000000000000000",
"0000000000000000000000000000000000550skx0000000500",
";50000000000000000000000000000005000skxxks55000000",
"@=5055500000000000000000000000000550kxxxxk00550000",
" &,05550000000000000000000000000500kxxxxxxks000000",
"@=50055000000000000000000000000050kMxxxMkxxk000500",
";50000050000000000000000000000005skMxkkxkxxk000500",
"0005500500000000000000000000000000skxxxxxxks055000",
"000550050000000000000000000000000050kxxxxks0055000",
"500000000000000000000000000000005000skxxxs55005000",
"00000000000000000055000500000005000500kx0055500000",
"000000000000000000550000055500000000000s0055000000",
"00000000000000000550000000055000500005550055000000",
"00000000000000005500000000000500000550000055000000",
"00000000000000000000055500000055005550000055000000",
"00000000000000000000550005550005000000550050000000",
"000000000000000000005000s0550005000000550000000500",
"00000000000000000000000sxs050005005500000000000500",
"000000000000000000055skkxxk00005500000000000000000",
"000000000000000000000sxxxxk00000500000000000000000"
};
