/* XPM */
static char *bb105bb3c29348cad14561e7c160c41eofMxNZ86PnAmNuUj[] = {
/* columns rows colors chars-per-pixel */
"50 50 132 2 ",
"   c #AE6E2E",
".  c #B6752F",
"X  c #B9752F",
"o  c #B67532",
"O  c #BA7633",
"+  c #BD7935",
"@  c #BE7C39",
"#  c #C17D37",
"$  c #C17E3A",
"%  c #C87F3A",
"&  c #C5813C",
"*  c #CA843E",
"=  c #CC883F",
"-  c #D58A3F",
";  c #C58442",
":  c #CB8641",
">  c #CE8A44",
",  c #CE8C49",
"<  c #D08742",
"1  c #D18B46",
"2  c #D08B46",
"3  c #D18B45",
"4  c #D58B44",
"5  c #D58A46",
"6  c #D48B46",
"7  c #D18D44",
"8  c #D08C45",
"9  c #D28C44",
"0  c #D38D45",
"q  c #D08E44",
"w  c #D28E45",
"e  c #D18D46",
"r  c #D18C47",
"t  c #D08D47",
"y  c #D28C46",
"u  c #D28C47",
"i  c #D38D47",
"p  c #D28E47",
"a  c #D48C44",
"s  c #D58D45",
"d  c #D78D44",
"f  c #D68C45",
"g  c #D68E44",
"h  c #D58C47",
"j  c #D78D46",
"k  c #D48E46",
"l  c #D68E46",
"z  c #D78F47",
"x  c #D38C44",
"c  c #D88B43",
"v  c #DA8E43",
"b  c #DB8F43",
"n  c #DC8E43",
"m  c #D98F44",
"M  c #D88E45",
"N  c #DB8F44",
"B  c #D98F46",
"V  c #DB8E46",
"C  c #DC8E44",
"Z  c #DC8E46",
"A  c #DC8F47",
"S  c #D08B48",
"D  c #D18C49",
"F  c #D08D49",
"G  c #D28D48",
"H  c #D38D48",
"J  c #D18E48",
"K  c #D38F48",
"L  c #D38E49",
"P  c #D28F49",
"I  c #D08C4B",
"U  c #D28D4A",
"Y  c #D18E4A",
"T  c #D08F4B",
"R  c #D38E4B",
"E  c #D28F4B",
"W  c #D58C48",
"Q  c #D68D48",
"!  c #D48E48",
"~  c #D48E49",
"^  c #D58F49",
"/  c #D78E49",
"(  c #D48F4A",
")  c #D58F4A",
"_  c #D18D4C",
"`  c #D28E4D",
"'  c #D28E49",
"]  c #D98F48",
"[  c #DB8E48",
"{  c #D88F4A",
"}  c #D88F4B",
"|  c #DA8F4B",
" . c #D99043",
".. c #D89044",
"X. c #DA9045",
"o. c #D89046",
"O. c #D99147",
"+. c #DA9047",
"@. c #DC9045",
"#. c #D39049",
"$. c #D3904A",
"%. c #D49049",
"&. c #D69048",
"*. c #D79149",
"=. c #D5914A",
"-. c #D5904B",
";. c #D6904A",
":. c #D6904B",
">. c #D7914B",
",. c #D5924B",
"<. c #D6924B",
"1. c #D3904C",
"2. c #D1904E",
"3. c #D4914D",
"4. c #D7914C",
"5. c #D7934C",
"6. c #D7924D",
"7. c #D6934F",
"8. c #D3904B",
"9. c #D89048",
"0. c #D99149",
"q. c #DA9049",
"w. c #D9904B",
"e. c #D8924A",
"r. c #D8924C",
"t. c #D8924D",
"y. c #D9934D",
"u. c #D8934E",
"i. c #D8944D",
"p. c #DA944E",
"a. c #DB954F",
"s. c #D49552",
/* pixels */
"* * * * * * * * * * * * * * * * * * * * * * * * : : : : ; ; ; O   o ; ; ; : : : * * * * * * : * @ + ",
"~ ~ ~ ~ ~ ~ ~ ~ ~ ~ s s ~ ~ ~ ~ %.#.%.i H i ~ H s H H H H H ` & + & , 2.H #.H H H H ~ H H H H H i i ",
"i i i i i i i i i i i i i i i i i i i i i 9 a 9 s i 3 i > H H $ O $ , H 3 i i i i i 4 i i i i i i i ",
"i i i i i i i i i i i i i i i i i i s s x x 4 x 4 s x i 3 H i $ X # > i 3 i 3 x x x x x x x 3 x x x ",
"s s s s s s s s s s s s s s s s s s a a a a c a c a 4 s s ~ ~ $ O $ i ~ 4 s s a a a a a a a s s 4 x ",
"x x x x x x x x x x x x x x x x 4 4 4 4 4 - - - 4 4 4 4 3 s 4 $ X # 3 i x s 4 4 4 4 4 4 4 4 4 4 4 4 ",
"s s s s s s s s s s s s s s s s 4 4 4 4 4 4 4 4 a s 4 s 4 ~ ~ % X # 3 i x s a 4 a a a a a a a a 4 s ",
"4 4 s s s s s s s s s s s s s s x a 4 a s a s a s s 4 s 4 ~ ~ & O # i ~ 3 s s a 4 4 4 4 4 a 4 4 4 4 ",
"s s s s s s s s ~ i i i i i i ~ i i ~ i s s s s s i 4 H > H ~ $ o # 3 H 3 ~ i x s s s s s i 4 s a a ",
"s s s s 4 s 4 i 3 3 3 i i i 3 3 i i i i i i i i 3 i i H > H H $ O $ H H > H 3 3 4 s s i i i i i 9 9 ",
"i i i i i i i i i H H H H H H H H , H H H i H i H H H 2.H , ` $ o @ , H > H H H i i i i H H H i 9 9 ",
"H H H H H H H H 3 > > > , > , , ` ` H H H H H H > 3 , H , , , & O @ > H > i 3 H 3 3 3 3 3 3 3 i 9 9 ",
"+ + + + @ @ + + $ @ $ @ @ $ @ @ @ @ @ @ @ @ # # $ & $ & & $ & @ O @ > > : : : * : : : : : : : : = = ",
"O O O + + + + + o O + o o o o o o O O O O O O O X O . o o o o o O O & * & * & * * * * * * * * * * & ",
"$ $ $ $ $ $ $ $ $ ; ; @ o @ @ ; $ $ $ $ $ $ $ $ $ & @ $ & $ & & & $ : : : > < x * * * * * * = * * * ",
"H H H H ` ` ` H , 2., & + @ , s.5.5.5.5.r.5.r.r.%.p.%.%.i.%.%.%.p.~ r.r.%.0.+.s 0.0.0.0.0.0.0.0.0.+.",
"x x 3 i i i 3 3 H i 5.& O + H 5.~ ~ ~ s ~ s s s 0.0.0.0.0.0.0.0.+.+.+.+.+.+.+.+.+.+.+.+.+.+.+.+.+.+.",
"a 9 9 9 9 9 i i i i ~ & O + H r.%.0.0.0.0.0.0.B B B B B B B B B @.@.B B B +.+.+.+.+.+.+.B B B B C C ",
"a a i i i i i i i > ~ & O + H r.0.+.+.+.+.+.+.B @.@.@.@.@.@.@.@.C b b  .B B B b B B B B B B B B ] ] ",
"a a i i i i i i i > H & O + H 5.0.B B B B B b b B B B B B B B B n n b b B B B B B B B B B B B B ] ] ",
"a a 9 9 i i i i i > H & O + , %.B B B B B B n b B B B B n n n n C C B B B B B B B b B B C C C C B B ",
"a a 9 9 i i i i i i H & O + , %.B B B B B B n n B B B B B b C B C B B B B B B B B b b b B B C B B B ",
"s a 9 9 i i i i i i H & O + i %.s B B B B B B B B B B B B B B B C B 0.+.0.+.B B B B B B ] ] ] B B B ",
"s a 9 9 i i i i i > H & + + H 5.0.+.] +.0.0.0.0.0.0.0.0.0.0.0.0.] ] 0.0.0.0.0.+.0.0.0.0.] 0.] 0.0.+.",
"s s 9 9 i i i i i i H * X + > %.%.%.0.%.] %.%.%.%.p.%.%.r.%.%.%.5.~ 5.5.~ r.%.0.%.%.] %.] %.] %.%.%.",
"x x = > > > > > > * > & O + * * * * : * : : : : * : * * * * : : : & : ; & * * * * * : : : : : : : : ",
"* * * * * * * * * & * & O O + X O O O O O + + + O + O O O O + O @ o + O O + O O O O O O O O O O + + ",
"* * * * * * * * : * * & + + + O + + + + + + + + + # + + + + @ O O o @ @ + # + + + + + + + + @ + + + ",
"3 3 3 3 x 3 3 3 > > > > > > > > > > > > > : : : > > > > > > > & + @ > > : > > > : : : : : : > : > = ",
"s s i i i i i i > i i i i i H H H H H H H H H H i H H 2.H H H & O @ , #.> i i i s s s i H H H H i i ",
"4 4 i i i i i i > i i i i i > > > 3 3 3 3 3 3 3 3 3 3 H > 3 i $ o @ , H > 9 x 9 x x 4 x 3 3 3 3 3 3 ",
"4 s s s s s 4 i i i > > x i 9 i i i i i i x 3 x 4 3 3 H > H H & O & H H 9 s 9 9 a a a s s s s s s s ",
"4 4 4 4 4 4 4 4 4 a s a a a a x x x a a a a 4 a s s x 3 3 i i # X $ i i i s x a 4 4 4 4 4 4 4 4 4 4 ",
"a a a a a a s s s s s a a a 4 x 9 9 a a a a a a a a a s i ~ H & X # i i 3 s i s s a a a a a a a 4 a ",
"x x x x x x 3 3 3 3 3 x a i x x i 9 i i a a 4 4 4 4 x a 3 i i & X $ 3 i > i 3 i 3 x x x x x x x s i ",
"i i i i i H H H i i i H ~ i i i i i i i a a 4 4 s s a i i i i & X & > %.H H S 3 i i i i i i i i 3 > ",
"3 > 3 > 3 , S , H H S , 3 > 3 3 i i i i s s s s s s 4 s i i i & o $ > , , , H , , > , > 3 > 3 > H H ",
"# # # # $ $ $ $ $ $ $ $ $ & * : : > : : * * * * * * * : * : : # o @ @ $ @ @ & $ $ $ $ $ $ $ # # @ @ ",
". . o o o o o o O O O O O + $ : * * * * * * * * * * & * & * * + + @ o + o o + o O O O O O O O O O O ",
"# @ # @ $ @ $ $ $ $ $ @ + @ ; > : : : : : : * * * * : > : * : $ $ & @ @ $ + & $ $ # $ # $ # $ # # @ ",
"i i i i i i i H H H 5.; O + > 2.3 3 i i 4 4 s s 9 9 i i i i i i H H H H H H H H H i H i H i H i H i ",
"i i i i i i i i i 3 R & O O > H 3 3 i i 4 4 s s 9 9 i i i i i i i i i i H i H i i i i i i i i i i i ",
"x x x x x x x 3 i 3 ~ & O O > H 3 3 4 4 4 4 s s 9 9 i i i i i i i i 4 i 4 i 4 s x x x x x x x x x x ",
"4 4 4 9 9 9 i i i i H & O O > H 3 3 4 4 4 4 s s a 9 i i i i i i i i s s s s s s s s s s s s s s a a ",
"4 4 4 4 s s i i i i H & O + , H 3 4 4 4 4 4 a a a a a a s s s s 4 4 4 4 4 4 4 4 4 4 4 4 s s s s 4 4 ",
"4 4 4 4 i s i i i > #.& O + , H 3 4 4 4 4 4 a a a a a a s s s s 4 4 4 4 4 4 4 4 4 4 4 4 s s s s 4 4 ",
"4 4 4 4 s s i i i > #.& O + , ` 3 4 4 4 4 4 4 4 a a a a a a 4 4 s a i s s s s s 4 4 4 4 4 4 4 4 a a ",
"4 4 4 4 4 s i i i > 5.; + + , 2.3 4 4 4 4 4 4 a a a a a a 9 4 4 s a s s s s x x s s s s s s s s s s ",
"4 x 3 3 3 3 x 9 9 i H : O @ > H 3 4 4 3 x x x x x x x x x x 3 3 x x x x x x x x x x x x x x x x x x ",
"- x 3 3 3 3 x - 9 x H ; O + > i 3 4 4 4 x x x x x x x x x x 3 3 x x x x x x x x x x x x x x x x x x "
};
